<?xml version="1.0" encoding="UTF-8"?>
<svg id="Layer_1" data-name="Layer 1" xmlns="http://www.w3.org/2000/svg" viewBox="0 0 364.64 76.76">
  <path d="m38.58,75.35c-3.39-18.78-18.1-33.54-37.02-36.94,9.4-1.85,17.57-6.04,24.35-12.8,6.78-6.76,11-14.9,12.9-24.32,1.84,9.36,5.98,17.48,12.72,24.21,6.74,6.72,14.85,10.86,24.23,12.67-9.43,1.89-17.59,6.1-24.36,12.88-6.76,6.77-10.95,14.92-12.82,24.3Zm-8.3-25.5c0-.57,0-.9,0-1.23,0-5.63,0-11.26,0-16.89,0-.38-.02-.76.02-1.13.37-3.9,4.45-5.52,7.11-4.06-.25.21-.49.4-.73.6-2.04,1.72-3.18,3.89-3.19,6.57-.03,6.48,0,12.96-.02,19.43,0,.43.13.77.37,1.13.93,1.38,1.82,2.79,2.73,4.18.11.17.24.32.35.48.05-.02.1-.03.15-.05v-1.01c0-8.71,0-17.42,0-26.13,0-.38-.02-.76.02-1.13.12-1.26.6-2.35,1.58-3.24.15.14.28.23.38.35.89,1.02,1.25,2.22,1.25,3.56-.01,8.81,0,17.61,0,26.42,0,.32.03.64.04,1.06,1.18-1.74,2.29-3.34,3.35-4.97.17-.26.2-.65.2-.98.01-6.32.02-12.64,0-18.96,0-2.75-1.14-4.98-3.24-6.73-.21-.18-.43-.35-.71-.57.19-.11.31-.2.45-.24,1.89-.58,3.62-.31,5.1,1.04,1.13,1.03,1.62,2.35,1.61,3.88-.01,5.75,0,11.51,0,17.26,0,.32.03.65.04,1.08,1.18-1.13,2.27-2.13,3.3-3.18.18-.19.24-.56.25-.85.01-3.96.05-7.93,0-11.89-.08-5.71-5.72-9.75-11.16-8.02-.61.19-1.12.17-1.71-.01-5.4-1.7-11.03,2.31-11.12,7.97-.07,4.06-.01,8.11-.03,12.17,0,.41.12.7.43.98.72.65,1.41,1.34,2.11,2.02.31.3.6.61,1.07,1.09Z"/>
  <path d="m135.82,21.13c-2.54,5.15-5.08,10.31-7.62,15.46-2.52,5.12-5.04,10.24-7.65,15.55-5.28-10.48-10.46-20.76-15.64-31.04-.06.01-.13.03-.19.04-2.04,10.28-4.08,20.56-6.14,30.96-2.53.05-5.06,0-7.75.02,3.81-17.13,7.59-34.16,11.41-51.37.21.34.33.5.42.68,4.52,8.91,9.07,17.82,13.54,26.76,1.38,2.75,2.55,5.61,3.82,8.41.14.31.29.62.5,1.05,1.96-4.19,3.83-8.3,5.79-12.36,1.98-4.11,4.05-8.17,6.07-12.25,2.01-4.04,4.02-8.08,6.02-12.12.07,0,.14.01.21.02,3.89,17.01,7.79,34.02,11.68,51.02-.73.2-6.1.25-7.66.09-2.2-10.28-4.42-20.59-6.63-30.9-.06,0-.13-.01-.19-.02Z"/>
  <path d="m265.6,26.47c-.01,14.27-11.62,25.84-25.92,25.83-14.29-.02-25.82-11.6-25.8-25.92.02-14.28,11.62-25.81,25.94-25.78,14.22.03,25.79,11.64,25.78,25.87Zm-6.81-.02c0-10.47-8.57-19.05-19.04-19.05-10.5,0-19.05,8.52-19.06,19.01-.01,10.54,8.53,19.1,19.07,19.1,10.47,0,19.04-8.57,19.04-19.05Z"/>
  <path d="m288.08,32.72c-2.54.06-5.05.11-7.66.17v19.2h-7.56V.75c.22-.03.4-.08.59-.08,4.66.03,9.32-.03,13.97.14,3.78.14,7.38,1.13,10.72,2.99,3.91,2.19,5.93,5.58,6.46,9.95.32,2.62.18,5.21-.57,7.75-1.2,4.06-3.8,6.95-7.52,8.88-.39.2-.78.39-1.3.65,4.04,7.01,8.06,13.98,12.14,21.06h-9c-3.41-6.44-6.84-12.9-10.28-19.38Zm-7.68-25.53c0,6.49,0,12.85,0,19.26,1.93,0,3.72.05,5.51-.02,1.28-.05,2.57-.17,3.84-.38,3.19-.54,5.44-2.31,6.68-5.32.85-2.06,1.02-4.2.65-6.38-.47-2.84-2.1-4.78-4.72-5.9-.66-.28-1.36-.5-2.05-.68-3.22-.82-6.5-.5-9.91-.57Z"/>
  <path d="m363.08,52.15h-9c-1.46-3.33-2.91-6.67-4.37-10.01h-23.49c-.16.34-.32.67-.47,1.01-1.21,2.76-2.41,5.53-3.6,8.3-.2.47-.41.77-1.01.76-2.49-.04-4.97-.02-7.46-.02-.12,0-.24-.03-.33-.04-.04-.06-.07-.08-.08-.11-.01-.03-.03-.07-.02-.09,8.18-16.88,16.36-33.76,24.54-50.64.08-.17.18-.32.35-.62,8.32,17.17,16.59,34.23,24.95,51.46Zm-33.72-17.2c1.59.19,16.42.12,17.18-.07-2.79-6.38-5.57-12.75-8.43-19.3-2.95,6.55-5.83,12.91-8.74,19.37Z"/>
  <path d="m198.12,7.4h-22.31V.74h34.57c-8.44,14.87-16.81,29.62-25.16,44.33.04.1.05.13.07.15.02.02.04.04.07.05.06.01.12.03.19.03,7.87.01,15.74.03,23.61.04.03,0,.05.02.15.07v6.67h-36.76c.61-1.2,1.3-2.3,1.93-3.43.65-1.15,1.31-2.29,1.97-3.44.66-1.15,1.31-2.29,1.97-3.44.64-1.12,1.28-2.24,1.92-3.35.66-1.15,1.32-2.29,1.97-3.43.66-1.15,1.31-2.29,1.97-3.44.66-1.15,1.32-2.29,1.97-3.44.66-1.15,1.31-2.29,1.97-3.44.66-1.15,1.31-2.29,1.97-3.44.64-1.12,1.28-2.24,1.92-3.35.66-1.15,1.31-2.29,1.97-3.44.66-1.15,1.32-2.29,1.97-3.44.65-1.14,1.31-2.29,2.07-3.61Z"/>
  <path d="m165.32,52.11h-7.57c-.18-.7-.26-49.64-.07-51.42,2.51-.05,5.04-.01,7.55-.03.21.78.29,49.52.1,51.45Z"/>
  <path d="m200.63,72.59c.77-2.45,1.54-4.9,2.32-7.36h1.87c.76,2.46,1.53,4.94,2.3,7.41h.16c.67-2.46,1.35-4.9,2.03-7.39h1.93c-1.03,3.56-2.05,7.04-3.07,10.59h-1.86c-.79-2.57-1.59-5.18-2.39-7.78-.06,0-.12,0-.18-.01-.79,2.58-1.59,5.17-2.39,7.8h-1.79c-1.03-3.48-2.06-6.98-3.13-10.59h2.07c.64,2.42,1.29,4.87,1.93,7.31.07,0,.13.01.2.02Z"/>
  <path d="m272.29,71.46v4.36h-1.87v-10.61c1.88.04,3.77-.26,5.61.29,1.98.6,2.73,3.07,1.4,4.65-.42.5-1.09.79-1.72,1.23.84,1.4,1.73,2.89,2.67,4.48h-2.29c-.56-1.02-1.15-2.09-1.74-3.16-.08-.14-.15-.28-.22-.41q-.54-.99-1.84-.83Zm0-1.8c.9,0,1.71.06,2.51-.02.79-.07,1.21-.58,1.24-1.3.03-.74-.32-1.2-1.13-1.39-.86-.2-1.73-.16-2.62-.05v2.75Z"/>
  <path d="m233.1,65.25v1.67h-5.1v2.63h4.79v1.75h-4.79v2.88h5.35v1.57c-.63.18-5.93.24-7.25.06v-10.56h7.01Z"/>
  <path d="m174.78,65.25h7.02v1.67c-1.66.08-3.31,0-5.03.05v2.53c1.56.13,3.16-.03,4.78.09v1.67h-4.8v2.9h5.33v1.68h-7.29c-.01-3.5,0-7,0-10.6Z"/>
  <path d="m297.42,75.87h-1.87c0-.38-.02-.75-.03-1.11-.01-1.13.22-2.34-.1-3.37-.33-1.07-1.18-1.98-1.81-2.96-.53-.82-1.07-1.63-1.6-2.45-.13-.2-.24-.42-.44-.79.74,0,1.36,0,1.97,0,.39,0,.53.29.69.56.58.94,1.15,1.87,1.74,2.81.16.26.34.51.58.86.71-1.13,1.34-2.17,2-3.2.77-1.2.42-1.01,1.85-1.03.28,0,.55,0,.96,0-.16.32-.25.54-.37.73-.86,1.32-1.67,2.67-2.61,3.93-.75,1.01-1.09,2.07-.97,3.32.08.87.02,1.74.02,2.7Z"/>
  <path d="m156.93,65.25h1.88c.02.36.05.66.05.97,0,2.07,0,4.15,0,6.22,0,.16,0,.31,0,.47-.12,2.31-1.62,3.54-3.91,3.2-1.37-.2-2.05-.85-2.42-2.4.53-.13,1.05-.26,1.63-.39.13.21.23.39.35.57.34.52.85.6,1.41.51.55-.09.8-.49.9-.97.09-.46.11-.94.11-1.41.01-1.92,0-3.83,0-5.75v-1.02Z"/>
  <path d="m248.87,65.24h1.88v8.91c1.53.07,3,0,4.51.05v1.65h-6.36c-.06-3.5,0-7-.03-10.61Z"/>
  <path d="m245.69,26.42c-3.12.96-5.07,3-5.98,6.23-.88-3.24-2.82-5.24-5.98-6.12.93-.46,1.86-.79,2.64-1.35.78-.56,1.5-1.26,2.06-2.03.57-.79.91-1.73,1.39-2.67.87,3.03,2.8,5.03,5.88,5.94Z"/>
</svg>